:FULLY-SPECIFIED
:FORCE-ALL-JOINTS-BE-3DOF
:DEGREES
781
root 1.6931 16.3244 18.6791 -28.4981 84.9263 325.075
lfemur -38.9714 17.5643 -16.2653
ltibia 51.8266 0 0
lfoot -22.6183 21.5202 0
ltoes 20.8081 0 0
rfemur -15.2251 -24.6303 22.2142
rtibia 51.0636 0 0
rfoot -20.9716 -36.0912 0
rtoes -25.6779 0 0
lowerback 0.976677 4.64082 -1.07574
upperback -1.0946 6.17335 -3.97366
thorax -1.34293 3.09999 -3.59992
lowerneck -5.28941 -6.77624 -0.871931
upperneck -2.88207 -8.87842 5.50944
head 0.289358 -4.36749 1.67285
lclavicle 6.5413e-14 -5.8882e-15 0
lhumerus -55.967 -11.6167 94.8338
lradius 71.1929 0 0
lwrist 12.1028 0 0
lhand -19.5019 -5.54975 0
lfingers 7.12502 0 0
lthumb 6.82083 24.3305 0
rclavicle 6.5413e-14 -5.8882e-15 0
rhumerus -30.6833 48.1362 -112.124
rradius 79.6709 0 0
rwrist 6.44957 0 0
rhand -23.4172 -20.184 0
rfingers 7.12502 0 0
rthumb 3.04048 -770.151 0
782
root 1.68551 16.3422 18.7737 -27.394 85.9698 326.224
lfemur -38.9552 17.6206 -16.2935
ltibia 51.9498 0 0
lfoot -22.598 21.5999 0
ltoes 20.8822 0 0
rfemur -15.2623 -24.7115 22.2103
rtibia 50.9003 0 0
rfoot -21.2976 -36.4619 0
rtoes -26.1439 0 0
lowerback 0.955754 4.62044 -1.08171
upperback -1.10399 6.14747 -3.99597
thorax -1.34074 3.08647 -3.61783
lowerneck -5.28967 -6.78135 -0.882688
upperneck -2.90951 -8.88366 5.52034
head 0.280088 -4.37069 1.67852
lclavicle 6.6426e-14 -5.87481e-15 0
lhumerus -56.0358 -11.6494 94.8971
lradius 71.3876 0 0
lwrist 12.083 0 0
lhand -19.4703 -5.57536 0
lfingers 7.12502 0 0
lthumb 6.85152 24.3081 0
rclavicle 6.6426e-14 -5.87481e-15 0
rhumerus -30.8714 48.0958 -112.267
rradius 79.6674 0 0
rwrist 6.50081 0 0
rhand -23.5647 -20.2057 0
rfingers 7.12502 0 0
rthumb 2.8982 -770.179 0
783
root 1.67793 16.36 18.8682 -26.8455 87.0334 326.819
lfemur -38.9514 17.756 -16.3877
ltibia 52.1346 0 0
lfoot -22.638 21.728 0
ltoes 20.9574 0 0
rfemur -15.3568 -24.8975 22.2123
rtibia 50.9148 0 0
rfoot -21.5032 -36.8186 0
rtoes -26.4571 0 0
lowerback 0.944029 4.60054 -1.1152
upperback -1.11418 6.12159 -4.02699
thorax -1.34675 3.07321 -3.63081
lowerneck -5.28775 -6.80684 -0.906268
upperneck -2.93988 -8.91499 5.54579
head 0.271361 -4.38654 1.69017
lclavicle 6.76164e-14 -5.90262e-15 0
lhumerus -56.0898 -11.6939 94.9559
lradius 71.5824 0 0
lwrist 12.0247 0 0
lhand -19.5009 -5.64442 0
lfingers 7.12502 0 0
lthumb 6.82214 24.2441 0
rclavicle 6.76164e-14 -5.90262e-15 0
rhumerus -30.9869 48.0849 -112.362
rradius 79.7177 0 0
rwrist 6.56657 0 0
rhand -23.7124 -20.1954 0
rfingers 7.12502 0 0
rthumb 2.75576 -770.176 0
784
root 1.67034 16.3778 18.9627 -26.7337 88.0199 326.978
lfemur -38.9597 17.9286 -16.5258
ltibia 52.3672 0 0
lfoot -22.7228 21.86 0
ltoes 21.0189 0 0
rfemur -15.4929 -25.1434 22.2166
rtibia 51.0636 0 0
rfoot -21.6062 -37.1291 0
rtoes -26.6283 0 0
lowerback 0.94088 4.58149 -1.16595
upperback -1.12377 6.09636 -4.06187
thorax -1.35851 3.06049 -3.63935
lowerneck -5.2849 -6.84517 -0.937692
upperneck -2.97012 -8.96287 5.57938
head 0.263689 -4.41036 1.70515
lclavicle 6.87285e-14 -5.95311e-15 0
lhumerus -56.1291 -11.7432 95.0069
lradius 71.7664 0 0
lwrist 11.9512 0 0
lhand -19.5745 -5.73686 0
lfingers 7.12502 0 0
lthumb 6.75118 24.1577 0
rclavicle 6.87285e-14 -5.95311e-15 0
rhumerus -31.0449 48.095 -112.421
rradius 79.8034 0 0
rwrist 6.63966 0 0
rhand -23.8551 -20.1688 0
rfingers 7.12502 0 0
rthumb 2.61813 -770.156 0
785
root 1.66276 16.3956 19.0572 -26.9395 88.832 326.818
lfemur -38.9799 18.0966 -16.6855
ltibia 52.6336 0 0
lfoot -22.8366 21.9512 0
ltoes 21.0518 0 0
rfemur -15.6552 -25.4044 22.2194
rtibia 51.3034 0 0
rfoot -21.6245 -37.361 0
rtoes -26.6686 0 0
lowerback 0.945685 4.56366 -1.22368
upperback -1.13135 6.07244 -4.0958
thorax -1.37361 3.04855 -3.64393
lowerneck -5.28239 -6.88878 -0.971987
upperneck -2.99719 -9.01772 5.6147
head 0.257582 -4.43749 1.72085
lclavicle 6.95065e-14 -6.00772e-15 0
lhumerus -56.1542 -11.7903 95.0466
lradius 71.9289 0 0
lwrist 11.8857 0 0
lhand -19.6721 -5.83261 0
lfingers 7.12502 0 0
lthumb 6.65712 24.0682 0
rclavicle 6.95065e-14 -6.00772e-15 0
rhumerus -31.0606 48.1179 -112.454
rradius 79.9058 0 0
rwrist 6.71288 0 0
rhand -23.9877 -20.1414 0
rfingers 7.12502 0 0
rthumb 2.49027 -770.135 0
786
root 1.65517 16.4133 19.1517 -27.344 89.3726 326.457
lfemur -39.0117 18.2181 -16.8448
ltibia 52.92 0 0
lfoot -22.9639 21.9572 0
ltoes 21.041 0 0
rfemur -15.8282 -25.6356 22.2168
rtibia 51.591 0 0
rfoot -21.5759 -37.4822 0
rtoes -26.589 0 0
lowerback 0.95782 4.5474 -1.27816
upperback -1.13553 6.05046 -4.12391
thorax -1.38961 3.03766 -3.64503
lowerneck -5.2815 -6.93012 -1.00418
upperneck -3.01804 -9.06999 5.64534
head 0.25355 -4.46323 1.73461
lclavicle 6.96947e-14 -6.0479e-15 0
lhumerus -56.1654 -11.8283 95.0717
lradius 72.0591 0 0
lwrist 11.8517 0 0
lhand -19.7745 -5.91159 0
lfingers 7.12502 0 0
lthumb 6.55843 23.9949 0
rclavicle 6.96947e-14 -6.0479e-15 0
rhumerus -31.0493 48.1454 -112.47
rradius 80.0066 0 0
rwrist 6.77904 0 0
rhand -24.1051 -20.1287 0
rfingers 7.12502 0 0
rthumb 2.37712 -770.129 0
787
root 1.64759 16.4311 19.2462 -27.828 89.5445 326.011
lfemur -39.0549 18.2514 -16.9817
ltibia 53.2126 0 0
lfoot -23.0891 21.8336 0
ltoes 20.9717 0 0
rfemur -15.9964 -25.7921 22.2051
rtibia 51.8829 0 0
rfoot -21.4783 -37.4603 0
rtoes -26.4005 0 0
lowerback 0.976663 4.53309 -1.3191
upperback -1.13491 6.03108 -4.14138
thorax -1.40408 3.02807 -3.64314
lowerneck -5.28347 -6.96164 -1.02928
upperneck -3.02964 -9.11012 5.66491
head 0.252106 -4.48292 1.74381
lclavicle 6.90374e-14 -6.05511e-15 0
lhumerus -56.1631 -11.85 95.0788
lradius 72.1461 0 0
lwrist 11.8724 0 0
lhand -19.8625 -5.95372 0
lfingers 7.12502 0 0
lthumb 6.47358 23.9571 0
rclavicle 6.90374e-14 -6.05511e-15 0
rhumerus -31.0261 48.1693 -112.48
rradius 80.0873 0 0
rwrist 6.83095 0 0
rhand -24.202 -20.1463 0
rfingers 7.12502 0 0
rthumb 2.28363 -770.152 0
788
root 1.64 16.4489 19.3407 -28.2727 89.2502 325.598
lfemur -39.1093 18.1545 -17.074
ltibia 53.4975 0 0
lfoot -23.1967 21.5358 0
ltoes 20.8289 0 0
rfemur -16.1442 -25.8291 22.1804
rtibia 52.1358 0 0
rfoot -21.3495 -37.2632 0
rtoes -26.1141 0 0
lowerback 1.00159 4.52108 -1.33625
upperback -1.12807 6.01495 -4.14338
thorax -1.41457 3.02004 -3.63873
lowerneck -5.28959 -6.9758 -1.04233
upperneck -3.02892 -9.12854 5.66699
head 0.25376 -4.49188 1.7458
lclavicle 6.72787e-14 -6.01081e-15 0
lhumerus -56.1477 -11.8487 95.0646
lradius 72.1793 0 0
lwrist 11.971 0 0
lhand -19.917 -5.93894 0
lfingers 7.12502 0 0
lthumb 6.42107 23.9739 0
rclavicle 6.72787e-14 -6.01081e-15 0
rhumerus -31.0063 48.1811 -112.495
rradius 80.1292 0 0
rwrist 6.86142 0 0
rhand -24.2735 -20.2097 0
rfingers 7.12502 0 0
rthumb 2.21476 -770.22 0
789
root 1.63242 16.4667 19.4353 -28.5589 88.3927 325.336
lfemur -39.1744 17.8856 -17.0995
ltibia 53.7608 0 0
lfoot -23.2711 21.0192 0
ltoes 20.5978 0 0
rfemur -16.2561 -25.7017 22.1389
rtibia 52.3063 0 0
rfoot -21.2074 -36.8586 0
rtoes -25.7409 0 0
lowerback 1.03198 4.51175 -1.31935
upperback -1.11362 6.00271 -4.12505
thorax -1.41867 3.01384 -3.6323
lowerneck -5.30111 -6.96503 -1.03834
upperneck -3.01285 -9.11569 5.64518
head 0.259023 -4.48543 1.73796
lclavicle 6.41629e-14 -5.89644e-15 0
lhumerus -56.1195 -11.8171 95.0257
lradius 72.1476 0 0
lwrist 12.1711 0 0
lhand -19.9187 -5.84717 0
lfingers 7.12502 0 0
lthumb 6.41936 24.0648 0
rclavicle 6.41629e-14 -5.89644e-15 0
rhumerus -31.0051 48.1728 -112.524
rradius 80.1139 0 0
rwrist 6.86324 0 0
rhand -24.3143 -20.3346 0
rfingers 7.12502 0 0
rthumb 2.17545 -770.349 0
790
root 1.62483 16.4845 19.5298 -28.5676 86.8747 325.34
lfemur -39.2502 17.403 -17.0363
ltibia 53.9886 0 0
lfoot -23.2966 20.2394 0
ltoes 20.2633 0 0
rfemur -16.3166 -25.3652 22.0769
rtibia 52.3512 0 0
rfoot -21.07 -36.2142 0
rtoes -25.2918 0 0
lowerback 1.06721 4.50545 -1.25813
upperback -1.09015 5.99501 -4.08156
thorax -1.41393 3.00971 -3.62433
lowerneck -5.31931 -6.92179 -1.01234
upperneck -2.97838 -9.06201 5.59308
head 0.268405 -4.4589 1.71764
lclavicle 5.94343e-14 -5.69347e-15 0
lhumerus -56.0789 -11.7485 94.9588
lradius 72.0405 0 0
lwrist 12.4957 0 0
lhand -19.8487 -5.65833 0
lfingers 7.12502 0 0
lthumb 6.48693 24.2488 0
rclavicle 5.94343e-14 -5.69347e-15 0
rhumerus -31.0376 48.136 -112.578
rradius 80.0229 0 0
rwrist 6.82924 0 0
rhand -24.3194 -20.5364 0
rfingers 7.12502 0 0
rthumb 2.17067 -770.553 0
